<svg id="Слой_1" data-name="Слой 1" xmlns="http://www.w3.org/2000/svg" viewBox="0 0 42.83 11.91"><defs><style>.cls-1,.cls-3{fill:#fff;}.cls-2{fill:#df0024;}.cls-3{font-size:2.85px;font-family:OpenSans, Open Sans;letter-spacing:-0.03em;}</style></defs><title>log</title><path class="cls-1" d="M8,25.2V23a8,8,0,0,1,.07-1.3,11.41,11.41,0,0,1,1.9.12h0l0-.07h0A4.24,4.24,0,0,1,10,21h0l0-.06h0a4.62,4.62,0,0,1-.56,0H5.32a4.62,4.62,0,0,1-.56,0h0l0,.06h0a4.24,4.24,0,0,1,0,.72h0l0,.07.23,0,.68-.06q.48,0,1,0A8,8,0,0,1,6.73,23V25.2a12.72,12.72,0,0,1-.1,1.89h0l0,.06.72,0,.68,0h0l0-.05v0A13.09,13.09,0,0,1,8,25.2Z" transform="translate(-4.7 -19.38)"/><path class="cls-1" d="M12.4,26.62l0-.08-.31,0-.74,0-.8,0a6.11,6.11,0,0,1,0-.92V25c.53,0,1,0,1.41.07h0L12,25v0a1.49,1.49,0,0,1,0-.21,1.23,1.23,0,0,1,0-.2v0l-.07-.06h0q-.73.06-1.41.06V24a6.17,6.17,0,0,1,0-.94c.56,0,1.14,0,1.74.07h0l0-.07v0a1.41,1.41,0,0,1,0-.2s0-.12,0-.25v0l0-.07h0l-.39,0H10l-.48,0h0l0,.06v0A10.45,10.45,0,0,1,9.53,24V25.7a10.06,10.06,0,0,1-.07,1.39h0l0,.08.53,0h1.92l.38,0h0l0-.07v0c0-.12,0-.2,0-.23a1.48,1.48,0,0,1,0-.22Z" transform="translate(-4.7 -19.38)"/><path class="cls-1" d="M15.32,25A1.81,1.81,0,0,0,15,24.7a3.35,3.35,0,0,0-.35-.2l-.35-.14-.18-.08a1,1,0,0,1-.18-.11.87.87,0,0,1-.17-.16.68.68,0,0,1-.11-.21.82.82,0,0,1-.05-.28.68.68,0,0,1,.13-.46.44.44,0,0,1,.37-.16.88.88,0,0,1,.58.22,1.37,1.37,0,0,1,.41.54v0h.16v-.05a6.13,6.13,0,0,1,.13-.79v0l0,0-.05-.05-.15-.09-.24-.09a1.9,1.9,0,0,0-.34-.08,2.9,2.9,0,0,0-.43,0,1.55,1.55,0,0,0-1,.34,1.15,1.15,0,0,0-.42.92,1,1,0,0,0,0,.33.84.84,0,0,0,.13.27,1.41,1.41,0,0,0,.2.24l.24.19.27.16.27.13.27.12a.84.84,0,0,1,.41.31,1.05,1.05,0,0,1,.12.57.77.77,0,0,1-.16.52.59.59,0,0,1-.46.18,1.26,1.26,0,0,1-.68-.23,1.24,1.24,0,0,1-.47-.53v0l-.16,0V26c0,.31-.08.58-.13.8v0l0,.06.17.09a2.35,2.35,0,0,0,.5.17,3.27,3.27,0,0,0,.7.08,2.25,2.25,0,0,0,.71-.11,1.33,1.33,0,0,0,.51-.33,1.37,1.37,0,0,0,.3-.45,1.4,1.4,0,0,0,.1-.54,1.14,1.14,0,0,0-.09-.46A1.28,1.28,0,0,0,15.32,25Z" transform="translate(-4.7 -19.38)"/><path class="cls-1" d="M19.39,23.12a4.42,4.42,0,0,1,0-.52v0l0-.07h0l-.39,0h-2.8l-.38,0h0l0,.07v0a4.42,4.42,0,0,1,0,.52v0l0,.08.17,0a3.56,3.56,0,0,1,.47,0l.67,0a7.79,7.79,0,0,1,0,.92V25.7A11.89,11.89,0,0,1,17,27.09h0l0,.08.51,0,.46,0h0l0-.07v0A12,12,0,0,1,18,25.7V24.05a7.79,7.79,0,0,1,0-.92,8,8,0,0,1,1.27.08h.05l0-.08Z" transform="translate(-4.7 -19.38)"/><path class="cls-1" d="M22.1,25a1.81,1.81,0,0,0-.32-.27,3.35,3.35,0,0,0-.35-.2l-.35-.14-.18-.08a1,1,0,0,1-.18-.11.87.87,0,0,1-.17-.16.68.68,0,0,1-.11-.21.82.82,0,0,1-.05-.28.68.68,0,0,1,.13-.46.44.44,0,0,1,.37-.16.88.88,0,0,1,.58.22,1.46,1.46,0,0,1,.41.54v0h.16v-.05a4.77,4.77,0,0,1,.13-.79v0l0,0-.05-.05L22,22.65l-.23-.09a1.9,1.9,0,0,0-.34-.08,3,3,0,0,0-.43,0,1.55,1.55,0,0,0-1,.34,1.15,1.15,0,0,0-.42.92,1,1,0,0,0,0,.33.84.84,0,0,0,.13.27,1.41,1.41,0,0,0,.2.24,2,2,0,0,0,.24.19l.27.16.27.13.27.12a.84.84,0,0,1,.41.31,1.05,1.05,0,0,1,.12.57.77.77,0,0,1-.16.52.59.59,0,0,1-.46.18,1.26,1.26,0,0,1-.68-.23A1.24,1.24,0,0,1,19.7,26l0,0-.15,0V26c0,.31-.08.58-.13.8v0l0,.06.17.09a2.35,2.35,0,0,0,.5.17,3.27,3.27,0,0,0,.7.08,2.25,2.25,0,0,0,.71-.11,1.33,1.33,0,0,0,.51-.33,1.37,1.37,0,0,0,.3-.45,1.4,1.4,0,0,0,.1-.54,1.14,1.14,0,0,0-.09-.46A1.28,1.28,0,0,0,22.1,25Z" transform="translate(-4.7 -19.38)"/><path class="cls-1" d="M25.84,26.62l0-.08-.31,0-.74,0-.8,0a6.11,6.11,0,0,1,0-.92V25c.53,0,1,0,1.41.07h0l.07-.06v0a1.49,1.49,0,0,1,0-.21,1.23,1.23,0,0,1,0-.2v0l-.06-.06h0q-.73.06-1.41.06V24a6.17,6.17,0,0,1,0-.94c.56,0,1.14,0,1.74.07h0l0-.07v0a1.5,1.5,0,0,1,0-.2s0-.12,0-.25v0l0-.07h0l-.38,0H23.46l-.48,0h0l0,.06v0A12.88,12.88,0,0,1,23,24V25.7a12.37,12.37,0,0,1-.06,1.39h0l0,.08.53,0h1.92l.39,0h0l0-.07v0c0-.12,0-.2,0-.23a1.48,1.48,0,0,1,0-.22Z" transform="translate(-4.7 -19.38)"/><path class="cls-1" d="M29.77,26c-.2-.52-.44-1.14-.71-1.87l-.63-1.65v0h-.54l-2,4.75.11,0a1.57,1.57,0,0,1,.35,0,1.14,1.14,0,0,1,.28,0l.05,0,0-.06a12.89,12.89,0,0,1,.5-1.5h1.42c.21.61.37,1.11.47,1.5l0,.05h.05a3.68,3.68,0,0,1,.45,0,4.69,4.69,0,0,1,.52,0l.11,0-.05-.1C30.12,26.89,30,26.52,29.77,26Zm-1.3-.88H27.41L28,23.76C28.13,24.22,28.31,24.68,28.47,25.12Z" transform="translate(-4.7 -19.38)"/><path class="cls-1" d="M33.58,26.54l0-.08-.31,0-.74,0c-.29,0-.56,0-.8,0a5.12,5.12,0,0,1,0-.84V24a11.89,11.89,0,0,1,.06-1.39h0l0-.07-.53,0-.45,0h0l-.05.06v0A11.07,11.07,0,0,1,30.71,24V25.7a12.37,12.37,0,0,1-.06,1.39v0l0,.07.52,0h1.92l.38,0h0l0-.07v0c0-.13,0-.22,0-.29a1.93,1.93,0,0,1,0-.25Z" transform="translate(-4.7 -19.38)"/><path class="cls-1" d="M37.49,26c-.2-.52-.44-1.14-.71-1.87l-.63-1.65v0H35.6l-2,4.75.11,0a1.57,1.57,0,0,1,.35,0,1.14,1.14,0,0,1,.28,0l.06,0v-.06a15.17,15.17,0,0,1,.5-1.5h1.43c.21.61.36,1.11.46,1.5l0,.05h0a3.68,3.68,0,0,1,.45,0,4.69,4.69,0,0,1,.52,0l.11,0,0-.1C37.84,26.89,37.69,26.52,37.49,26Zm-1.3-.88H35.13l.54-1.36C35.85,24.22,36,24.68,36.19,25.12Z" transform="translate(-4.7 -19.38)"/><path class="cls-1" d="M40.87,24.57a1.26,1.26,0,0,0,.34-.35,1,1,0,0,0,.18-.56,1.06,1.06,0,0,0,0-.31.92.92,0,0,0-.16-.31,1.26,1.26,0,0,0-.29-.27,1.52,1.52,0,0,0-.46-.18,2.43,2.43,0,0,0-.63-.07H38.9l-.45,0h0l-.05.06v0A12.88,12.88,0,0,1,38.43,24V25.7a12.37,12.37,0,0,1-.06,1.39v0l0,.07.5,0h.46l.59,0a2.44,2.44,0,0,0,.8-.13,1.45,1.45,0,0,0,.55-.32,1.56,1.56,0,0,0,.3-.44,1.33,1.33,0,0,0,.1-.48,1.28,1.28,0,0,0-.26-.82A1.44,1.44,0,0,0,40.87,24.57Zm-.12,1.37a1.87,1.87,0,0,1,0,.27.48.48,0,0,1-.07.2.4.4,0,0,1-.14.15,1.39,1.39,0,0,1-.27.09,2.5,2.5,0,0,1-.42,0,.89.89,0,0,1-.42-.06.23.23,0,0,1-.09-.21v-1.5h.54a1.18,1.18,0,0,1,.45.07.64.64,0,0,1,.27.22,1,1,0,0,1,.13.32A1.76,1.76,0,0,1,40.75,25.94Zm-1.43-1.52V23.27c0-.09,0-.14,0-.16a.24.24,0,0,1,.13-.07,1.64,1.64,0,0,1,.37,0,.9.9,0,0,1,.25,0,.38.38,0,0,1,.18.09.42.42,0,0,1,.12.21,1.45,1.45,0,0,1,.05.4.78.78,0,0,1-.14.54.81.81,0,0,1-.54.14Z" transform="translate(-4.7 -19.38)"/><path class="cls-1" d="M44.93,25.33a1.57,1.57,0,0,0-.22-.36,2.39,2.39,0,0,0-.33-.27,2.57,2.57,0,0,0-.35-.2l-.35-.14-.18-.08a.69.69,0,0,1-.17-.11.66.66,0,0,1-.17-.16A.53.53,0,0,1,43,23.8a.82.82,0,0,1,0-.28.68.68,0,0,1,.14-.46.41.41,0,0,1,.36-.16.86.86,0,0,1,.58.22,1.37,1.37,0,0,1,.41.54l0,0h.15v-.05a5,5,0,0,1,.12-.79v0l0,0-.06-.05-.15-.09-.23-.09a2.14,2.14,0,0,0-.34-.08,3.15,3.15,0,0,0-.44,0,1.54,1.54,0,0,0-1,.34,1.13,1.13,0,0,0-.43.92,1.26,1.26,0,0,0,0,.33,1.15,1.15,0,0,0,.34.51l.23.19.28.16a1.62,1.62,0,0,0,.27.13l.26.12a.84.84,0,0,1,.41.31,1.05,1.05,0,0,1,.12.57.72.72,0,0,1-.16.52.56.56,0,0,1-.46.18,1.2,1.2,0,0,1-.67-.23,1.08,1.08,0,0,1-.47-.53l0,0-.16,0V26a6.37,6.37,0,0,1-.13.8v0l0,.06.17.09a2.23,2.23,0,0,0,.49.17,3.36,3.36,0,0,0,.71.08,2.19,2.19,0,0,0,.7-.11,1.37,1.37,0,0,0,.52-.33,1.2,1.2,0,0,0,.29-.45,1.41,1.41,0,0,0,.11-.54A1.14,1.14,0,0,0,44.93,25.33Z" transform="translate(-4.7 -19.38)"/><path class="cls-2" d="M35,22.05c-2-1.59-6-2.67-10.61-2.67-4.82,0-9,1.17-10.84,2.86,2.09-1.18,5.62-1.95,9.62-1.95a21.77,21.77,0,0,1,9.26,1.76Z" transform="translate(-4.7 -19.38)"/><path class="cls-1" d="M5.57,29.79v.83H5.33v-2h.56a.92.92,0,0,1,.56.14.48.48,0,0,1,.19.42.53.53,0,0,1-.42.54l.56.9H6.5L6,29.79Zm0-.2H5.9a.56.56,0,0,0,.37-.1.36.36,0,0,0,.12-.29.33.33,0,0,0-.12-.29.66.66,0,0,0-.39-.09H5.57Z" transform="translate(-4.7 -19.38)"/><path class="cls-1" d="M8,30.62l0-.21h0a.92.92,0,0,1-.23.19.84.84,0,0,1-.29,0A.52.52,0,0,1,7,30.53a.38.38,0,0,1-.13-.32q0-.47.75-.48h.26v-.09a.37.37,0,0,0-.08-.26.3.3,0,0,0-.25-.09,1,1,0,0,0-.44.12l-.07-.18a1.06,1.06,0,0,1,.25-.09,1.27,1.27,0,0,1,.28,0,.61.61,0,0,1,.41.11.5.5,0,0,1,.13.39v1Zm-.53-.16a.47.47,0,0,0,.34-.12A.41.41,0,0,0,7.89,30v-.14H7.65a.87.87,0,0,0-.4.09.24.24,0,0,0-.13.23.26.26,0,0,0,.08.19A.34.34,0,0,0,7.42,30.46Z" transform="translate(-4.7 -19.38)"/><path class="cls-1" d="M9.24,30.65A.64.64,0,0,1,9,30.59a.54.54,0,0,1-.21-.16h0a1.06,1.06,0,0,1,0,.25v.61H8.52V29.12h.19l0,.21h0A.44.44,0,0,1,9,29.15a.61.61,0,0,1,.28-.06.57.57,0,0,1,.47.21.81.81,0,0,1,.17.57.86.86,0,0,1-.17.57A.57.57,0,0,1,9.24,30.65Zm0-1.36a.44.44,0,0,0-.34.12.65.65,0,0,0-.11.41v.05a.74.74,0,0,0,.11.45.42.42,0,0,0,.35.14.35.35,0,0,0,.31-.16.69.69,0,0,0,.12-.43.67.67,0,0,0-.12-.43A.37.37,0,0,0,9.2,29.29Z" transform="translate(-4.7 -19.38)"/><path class="cls-1" d="M10.18,28.71a.16.16,0,0,1,0-.11.14.14,0,0,1,.2,0,.14.14,0,0,1,0,.11.16.16,0,0,1,0,.12.14.14,0,0,1-.2,0A.21.21,0,0,1,10.18,28.71Zm.26,1.91H10.2v-1.5h.24Z" transform="translate(-4.7 -19.38)"/><path class="cls-1" d="M11.91,30.42h0a.56.56,0,0,1-.48.23.61.61,0,0,1-.48-.2.91.91,0,0,1-.17-.58.88.88,0,0,1,.17-.57.59.59,0,0,1,.48-.21.58.58,0,0,1,.48.22h0v-.82h.24v2.13h-.19Zm-.47,0a.4.4,0,0,0,.34-.13.58.58,0,0,0,.11-.41v-.05a.68.68,0,0,0-.11-.45.42.42,0,0,0-.35-.14.35.35,0,0,0-.31.16.7.7,0,0,0-.11.44.67.67,0,0,0,.11.43A.37.37,0,0,0,11.44,30.46Z" transform="translate(-4.7 -19.38)"/><path class="cls-1" d="M13.88,30.62h-.25V28.83H13v-.21h1.55v.21h-.65Z" transform="translate(-4.7 -19.38)"/><path class="cls-1" d="M15.37,30.65a.73.73,0,0,1-.54-.2.93.93,0,0,1,0-1.14.59.59,0,0,1,.49-.22.56.56,0,0,1,.46.19.65.65,0,0,1,.17.49v.14H14.88a.58.58,0,0,0,.13.4.5.5,0,0,0,.37.14,1.27,1.27,0,0,0,.5-.1v.2l-.24.08Zm-.06-1.37a.41.41,0,0,0-.3.12.55.55,0,0,0-.13.33h.81a.45.45,0,0,0-.1-.33A.34.34,0,0,0,15.31,29.28Z" transform="translate(-4.7 -19.38)"/><path class="cls-1" d="M17.26,30.21a.36.36,0,0,1-.17.32.71.71,0,0,1-.45.12,1,1,0,0,1-.48-.1v-.21a1.17,1.17,0,0,0,.24.09l.25,0a.55.55,0,0,0,.28-.06.17.17,0,0,0,.1-.17.19.19,0,0,0-.08-.15,1.34,1.34,0,0,0-.3-.15,1.42,1.42,0,0,1-.31-.13.6.6,0,0,1-.14-.13.34.34,0,0,1,0-.18.34.34,0,0,1,.15-.29.75.75,0,0,1,.42-.11,1.38,1.38,0,0,1,.49.1l-.08.19a1.06,1.06,0,0,0-.42-.1.52.52,0,0,0-.25,0,.16.16,0,0,0-.09.14.2.2,0,0,0,0,.11l.11.08.27.11a1.12,1.12,0,0,1,.37.19A.37.37,0,0,1,17.26,30.21Z" transform="translate(-4.7 -19.38)"/><path class="cls-1" d="M18.05,30.46h.12l.09,0v.18l-.11,0H18a.4.4,0,0,1-.45-.46V29.3h-.22v-.11l.22-.1.1-.32h.13v.35h.45v.18H17.8v.88a.33.33,0,0,0,.07.21A.21.21,0,0,0,18.05,30.46Z" transform="translate(-4.7 -19.38)"/><path class="cls-1" d="M20.68,30.62H20.4l-.76-1-.21.19v.78h-.24v-2h.24v1l.93-1h.29l-.83.87Z" transform="translate(-4.7 -19.38)"/><path class="cls-1" d="M20.82,28.71a.16.16,0,0,1,0-.11.15.15,0,0,1,.2,0,.14.14,0,0,1,0,.11.16.16,0,0,1,0,.12.15.15,0,0,1-.2,0A.21.21,0,0,1,20.82,28.71Zm.26,1.91h-.24v-1.5h.24Z" transform="translate(-4.7 -19.38)"/><path class="cls-1" d="M22,30.46h.12l.09,0v.18l-.11,0H22a.4.4,0,0,1-.45-.46V29.3h-.22v-.11l.22-.1.1-.32h.14v.35h.45v.18h-.45v.88a.28.28,0,0,0,.07.21A.21.21,0,0,0,22,30.46Z" transform="translate(-4.7 -19.38)"/><text class="cls-3" transform="translate(40.55 3.63)">®</text></svg>