<svg id="part" data-name="part" xmlns="http://www.w3.org/2000/svg" viewBox="0 0 480.01 480.01"><defs><style>.cls-1{fill:#aab3b8;}</style></defs><title>separator-viral</title><g id="outline"><path class="cls-1" d="M256,136A120,120,0,1,0,376,256,120,120,0,0,0,256,136Zm0,224A104,104,0,1,1,360,256,104,104,0,0,1,256,360Z" transform="translate(-16 -16)"/><path class="cls-1" d="M288,192a32,32,0,1,0,32,32A32,32,0,0,0,288,192Zm0,48a16,16,0,1,1,16-16A16,16,0,0,1,288,240Z" transform="translate(-16 -16)"/><path class="cls-1" d="M200,232a24,24,0,1,0,24,24A24,24,0,0,0,200,232Zm0,32a8,8,0,1,1,8-8A8,8,0,0,1,200,264Z" transform="translate(-16 -16)"/><path class="cls-1" d="M272,296a24,24,0,1,0,24,24A24,24,0,0,0,272,296Zm0,32a8,8,0,1,1,8-8A8,8,0,0,1,272,328Z" transform="translate(-16 -16)"/><circle class="cls-1" cx="240" cy="32" r="8"/><circle class="cls-1" cx="92.93" cy="92.93" r="8"/><circle class="cls-1" cx="208" cy="184" r="8"/><circle class="cls-1" cx="296" cy="264" r="8"/><circle class="cls-1" cx="200" cy="280" r="8"/><circle class="cls-1" cx="32" cy="240" r="8"/><circle class="cls-1" cx="92.93" cy="387.08" r="8"/><circle class="cls-1" cx="240" cy="448" r="8"/><circle class="cls-1" cx="387.08" cy="387.08" r="8"/><path class="cls-1" d="M464,224a32.06,32.06,0,0,0-31,24H407.79a151.18,151.18,0,0,0-8.49-42.7l31-12.86a24,24,0,1,0,17.8-40,24,24,0,0,0-23.93,25.27l-31,12.86a152.33,152.33,0,0,0-24.23-36.15l17.89-17.89a32,32,0,1,0-11.31-11.32l-17.89,17.89a152.29,152.29,0,0,0-36.15-24.22l12.86-31c.41,0,.82,0,1.24,0a24,24,0,1,0-16-6.16l-12.85,31a150.84,150.84,0,0,0-42.7-8.49V79a32,32,0,1,0-16,0v25.22a151.18,151.18,0,0,0-42.7,8.49l-12.85-31a24,24,0,1,0-16,6.16q.62,0,1.23,0l12.86,31a152.53,152.53,0,0,0-36.15,24.23l-17.88-17.89a32,32,0,1,0-11.32,11.31l17.89,17.89a152.29,152.29,0,0,0-24.22,36.15l-31-12.86a24,24,0,1,0-33.15,20.9,23.76,23.76,0,0,0,9.15,1.83,24.09,24.09,0,0,0,17.86-8l31,12.86a150.84,150.84,0,0,0-8.49,42.7H79a32,32,0,1,0,0,16h25.22a151.18,151.18,0,0,0,8.49,42.7l-31,12.85a24,24,0,1,0,6.13,14.78l31-12.86a152.63,152.63,0,0,0,24.23,36.15l-17.89,17.89a32,32,0,1,0,11.31,11.32l17.89-17.89a152.49,152.49,0,0,0,36.15,24.22l-12.86,31a24,24,0,1,0,14.78,6.12l12.85-31a150.84,150.84,0,0,0,42.7,8.49V433a32,32,0,1,0,16,0V407.79a151.18,151.18,0,0,0,42.7-8.49l12.85,31a24,24,0,1,0,14.78-6.13l-12.86-31a152.33,152.33,0,0,0,36.15-24.23l17.89,17.89a32,32,0,1,0,11.32-11.31l-17.89-17.89a152.29,152.29,0,0,0,24.22-36.15l31,12.86a24,24,0,1,0,6.12-14.78l-31-12.85a150.84,150.84,0,0,0,8.49-42.7H433a32,32,0,1,0,31-40Zm-18.89-55a8,8,0,1,1-4.33,10.46h0A8,8,0,0,1,445.11,169ZM328.21,60.77a8,8,0,1,1,4.33,10.45,8,8,0,0,1-4.33-10.45ZM169,66.9a8,8,0,1,1,10.46,4.33h0A8,8,0,0,1,169,66.9ZM60.77,183.8a8,8,0,1,1,10.45-4.33,8,8,0,0,1-10.45,4.33ZM66.9,343a8,8,0,1,1,4.32-10.45h0A8,8,0,0,1,66.9,343ZM183.8,451.24a8,8,0,1,1-4.33-10.45,8,8,0,0,1,4.33,10.45ZM343,445.12a8,8,0,1,1-10.45-4.33h0A8,8,0,0,1,343,445.12ZM448.18,327.6a8,8,0,1,1-7.4,4.94A8,8,0,0,1,448.18,327.6Zm-56.42-230a16,16,0,1,1,0,22.63h0A16,16,0,0,1,391.76,97.61ZM240,48a16,16,0,1,1,16,16A16,16,0,0,1,240,48ZM97.61,120.24a16,16,0,1,1,22.63,0h0A16,16,0,0,1,97.61,120.24ZM48,272a16,16,0,1,1,16-16A16,16,0,0,1,48,272Zm72.24,142.39a16,16,0,1,1,0-22.63h0A16,16,0,0,1,120.24,414.39ZM272,464a16,16,0,1,1-16-16A16,16,0,0,1,272,464Zm-16-72c-75,0-136-61-136-136s61-136,136-136,136,61,136,136S331,392,256,392Zm158.39-.24a16,16,0,1,1-22.63,0h0a16,16,0,0,1,22.62,0ZM464,272a16,16,0,1,1,16-16A16,16,0,0,1,464,272Z" transform="translate(-16 -16)"/><circle class="cls-1" cx="448" cy="240" r="8"/><circle class="cls-1" cx="387.08" cy="92.93" r="8"/></g></svg>